<?xml version="1.0" encoding="utf-8"?>
<!-- Generator: Adobe Illustrator 23.0.1, SVG Export Plug-In . SVG Version: 6.00 Build 0)  -->
<svg version="1.1"
	 id="svg8" inkscape:version="0.92.4 (5da689c313, 2019-01-14)" sodipodi:docname="texture.svg" xmlns:cc="http://creativecommons.org/ns#" xmlns:dc="http://purl.org/dc/elements/1.1/" xmlns:inkscape="http://www.inkscape.org/namespaces/inkscape" xmlns:rdf="http://www.w3.org/1999/02/22-rdf-syntax-ns#" xmlns:sodipodi="http://sodipodi.sourceforge.net/DTD/sodipodi-0.dtd" xmlns:svg="http://www.w3.org/2000/svg"
	 xmlns="http://www.w3.org/2000/svg" xmlns:xlink="http://www.w3.org/1999/xlink" x="0px" y="0px" viewBox="0 0 595.3 841.9"
	 style="enable-background:new 0 0 595.3 841.9;" xml:space="preserve">
<style type="text/css">
	.st0{fill:#FFEFC6;}
</style>
<sodipodi:namedview  bordercolor="#666666" borderopacity="1.0" id="base" inkscape:current-layer="layer1" inkscape:cx="416.8516" inkscape:cy="467.86416" inkscape:document-units="mm" inkscape:pageopacity="0.0" inkscape:pageshadow="2" inkscape:window-height="1001" inkscape:window-maximized="1" inkscape:window-width="1920" inkscape:window-x="-9" inkscape:window-y="-9" inkscape:zoom="0.49497475" pagecolor="#ffffff" showgrid="false">
	</sodipodi:namedview>
<g id="layer1" inkscape:groupmode="layer" inkscape:label="Layer 1">
	<path id="path21" inkscape:connector-curvature="0" class="st0" d="M0.3,837.7c0-3.4,0.4-7,0.8-8c0.4-0.9,0.8-1.3,0.8-0.9
		c0,0.6,0.3,0.5,0.7,0c1.1-1.5,10.5-4,13-3.4c2,0.4,2.6,0.1,3.4-1.8l1.1-2.3l1.3,1.9c0.7,1,1.9,1.9,2.5,1.9c0.7,0,1.2,0.4,1.2,0.9
		s0.6,0.3,1.4-0.4c1.5-1.5,3-1.8,3-0.6c0,0.4,1.5,1.4,3.2,2.2c1.8,0.8,4.3,2,5.7,2.8c2.2,1.2,2.5,1.2,3.6-0.3
		c0.7-0.9,1.2-1.9,1.2-2.3c0-0.4,0.6-0.5,1.2-0.3c0.7,0.3,1.9-0.3,2.7-1.2c1.2-1.4,2.3-1.6,6.5-1.2c2.8,0.2,5.2,0,5.5-0.4
		c0.3-0.5,1.6-0.6,2.9-0.4c1.5,0.3,2.8,0,3.5-0.8c0.8-1,1.7-1.1,3.8-0.5c1.5,0.4,2.8,0.8,2.9,0.8c0.4,0,1.3-8.9,2.4-25.2
		c0.7-9.9,1.4-18.1,1.6-18.3s0.7,5.1,1,11.8c0.4,7.2,1,12.5,1.6,12.9c0.5,0.4,2.4,2,4.2,3.4c3,2.5,3.3,2.6,4.6,1.3
		c4.8-4.8,8.5-4.8,11.1-0.2c1.1,2.1,2,2.8,3.2,2.5c2.1-0.6,3.5,0.7,9,8.2c4.2,5.7,7.2,7.9,7.2,5.3c0-1.3,8.6-0.4,11,1.1
		c1.5,0.9,6.4,10.8,8.2,16.5c0.5,1.4-3.2,1.5-68.3,1.5H0.2L0.3,837.7z M138.8,842.4c0-0.8,0.5-2.3,1.2-3.2s1.9-4.1,2.7-7
		c1.2-4.4,1.9-5.4,3.7-5.9c2.9-0.7,4.2,0.7,5.5,6c1.4,5.6,2.2,6.4,3.3,3.5c0.5-1.3,1.3-2.1,1.7-1.8c1.1,0.7,2.3-1.7,2.9-5.9
		c0.7-4.5,2.7-7.4,4.7-6.9c0.9,0.2,2.1-0.2,2.7-0.9c1.5-1.9,2.5-1.7,3.6,0.6c2.4,5.2,5,8.9,7.1,10.1c2.1,1.2,2.5,1.2,3.5-0.2
		c0.6-0.8,1.5-1.5,2.1-1.5s1.3-0.7,1.7-1.4c0.5-0.9,2-1.5,4-1.5c3.1-0.1,3.3-0.3,5-4.6c1.4-3.7,2.5-5,5.5-6.8
		c2.1-1.2,3.7-2.6,3.8-3.2c0-0.5,0.8-11.5,1.7-24.2c0.9-12.8,1.7-24.2,1.8-25.4l0.1-2.2l0.7,2.2c0.4,1.2,1.4,9.5,2.1,18.5
		c1.9,21.8,4.1,31.3,6.9,30.2c0.7-0.3,1.5,0.1,1.9,0.9c0.6,1,1.1,0.4,2.2-2.6c0.8-2.2,1.9-3.9,2.3-3.9c0.5,0,0.6,0.3,0.4,0.7
		c-0.3,0.4,0.5,0.6,1.6,0.3c1.4-0.3,2.5-1.5,3.6-3.8c2-4.4,5.1-6.6,11-7.7c3.7-0.7,5.3-0.6,7.2,0.3c1.8,0.9,4.8,1.1,12,0.8
		c6.6-0.3,9.8-0.1,10.2,0.5c0.8,1.4,3.6,1.2,5.1-0.3c1.8-1.8,2.5-0.7,5.6,9.9c1.5,5,3.3,9.4,4.1,9.9c0.8,0.5,2.7,1.9,4.4,3.2
		c1.7,1.3,3.5,2.4,4.1,2.4s3-1.4,5.3-3.2c5.8-4.4,11.5-3.9,16.7,1.7c1.5,1.6,2.6,1.9,6.2,1.8c2.4-0.1,5.8-0.6,7.6-1.2
		c2.7-0.9,3.5-0.8,5.4,0.5c2.2,1.5,2.4,1.4,7.8-1.3c5.3-2.7,5.7-2.8,9-1.7c1.9,0.6,3.5,1.6,3.5,2.2c0,0.6,1.1,1.5,2.4,2
		s3,1.4,3.8,1.9c0.8,0.6,2,0.7,3,0.3c0.9-0.4,2-0.8,2.5-0.8c0.5-0.1,1.4-0.4,2.2-0.6c0.7-0.3,2-0.7,2.8-1s1.5-0.8,1.4-1.2
		c-0.3-1.7,0.2-2.1,1.2-1.2c0.6,0.5,2.3,1.1,3.8,1.2c1.4,0.2,3.7,1.1,5,2.2c1.3,1,2.8,1.9,3.4,1.9c1.8,0,4.8-2.7,4.8-4.2
		c0-0.9,0.6-2,1.3-2.6c0.7-0.6,1.3-1.7,1.3-2.4c0-1.1,0.2-1.1,1-0.3c1.4,1.4,2.4,1.3,2.4-0.2c0-1.7,4.5-9,5.7-9.1
		c0.5,0,2.5,1.3,4.4,3s3.9,3,4.3,3c0.8,0,2.6-1.7,7-6.7c2.1-2.3,2.6-3.9,3.1-8.6c1.3-12.7,1.8-12.2,2.8,2.5
		c0.9,13,1.1,14.6,3.1,17.5c1.2,1.8,2.4,3.9,2.7,4.8c0.5,1.6,8,5.2,10.8,5.2c0.9,0,1.8-0.4,2.1-0.9c0.3-0.5,1.2-0.7,2.1-0.4
		c1,0.3,2.4-0.4,4.1-2.5c3.9-4.4,5.5-5,9.5-3.6c1.9,0.7,3.6,1.1,3.8,0.9c0.2-0.2,2,0.4,3.9,1.4c4.5,2.2,5.2,2.2,6.1-0.2
		c0.6-1.7,0.9-1.5,2.5,2.2c2,4.6,3.3,5.1,4.5,1.9c0.5-1.2,1.2-2,1.6-1.8s1.8-0.7,3.2-2.1c2.9-3,5.7-3.3,8.8-0.8
		c1.9,1.5,3.1,1.7,8.6,1.3c3.5-0.2,6.8-0.7,7.2-0.9c0.5-0.3,1.4-0.1,2,0.4s2.3,0.9,3.6,0.9c1.4,0,3.5,0.1,4.7,0.3
		c1.4,0.2,2.2,0,2.2-0.6c-0.1-4.2,1.3-5.3,3.2-2.6c1.5,2.1,5.2,2.2,7,0.2c0.8-0.9,2-1.7,2.6-1.7s1.9-0.8,2.8-1.8
		c1.7-1.9,3.5-1.6,3.5,0.6c0,2,1.2,1.4,2.7-1.2c1.5-2.6,4.2-3.3,4.2-1c0,0.8,0.6,2.2,1.2,3.1c1.2,1.6,1.3,1.6,2.1-0.5
		c0.7-1.9,0.9-2,1.4-0.6c0.3,0.8,1.1,1.5,1.7,1.5s1.3-0.7,1.5-1.5c0.3-1.3,0.4-1.3,0.5,0.2c0.1,2.4,2.8,9.1,3.6,9.1
		c0.4,0,1.4-0.7,2.2-1.5c4-4,4.4-4,5.8-0.6c1.7,4.1,3.2,3.5,4.7-1.8l1.2-4.2l1.8,3.4c1,1.9,1.7,3.6,1.7,3.9
		c-0.3,1.1,5.4-0.4,6.3-1.6c0.7-1,1.1-1,1.6-0.2c0.8,1.3,4.4,2.8,7.7,3.2c1.4,0.2,2.7,0.5,2.9,0.7s0.6,4.1,0.8,8.6l0.4,8.2H367.4
		C148.9,843.9,138.8,843.9,138.8,842.4L138.8,842.4z"/>
</g>
</svg>
